<svg xmlns="http://www.w3.org/2000/svg" xmlns:xlink="http://www.w3.org/1999/xlink" width="192" zoomAndPan="magnify" viewBox="0 0 144 143.999998" height="192" preserveAspectRatio="xMidYMid meet" version="1.0"><defs><g/><clipPath id="fd655b6a65"><path d="M 24 0 L 120 0 C 133.253906 0 144 10.746094 144 24 L 144 120 C 144 133.253906 133.253906 144 120 144 L 24 144 C 10.746094 144 0 133.253906 0 120 L 0 24 C 0 10.746094 10.746094 0 24 0 Z M 24 0 " clip-rule="nonzero"/></clipPath><clipPath id="74a1cb2500"><path d="M 0 0 L 144 0 L 144 144 L 0 144 Z M 0 0 " clip-rule="nonzero"/></clipPath><clipPath id="8ffbc8519f"><path d="M 24 0 L 120 0 C 133.253906 0 144 10.746094 144 24 L 144 120 C 144 133.253906 133.253906 144 120 144 L 24 144 C 10.746094 144 0 133.253906 0 120 L 0 24 C 0 10.746094 10.746094 0 24 0 Z M 24 0 " clip-rule="nonzero"/></clipPath><clipPath id="21147dfed5"><rect x="0" width="144" y="0" height="144"/></clipPath><clipPath id="5316807cb2"><rect x="0" width="132" y="0" height="79"/></clipPath></defs><g clip-path="url(#fd655b6a65)"><g transform="matrix(1, 0, 0, 1, 0, -0.000000000000008916)"><g clip-path="url(#21147dfed5)"><g clip-path="url(#74a1cb2500)"><g clip-path="url(#8ffbc8519f)"><rect x="-31.68" width="207.36" fill="#1e1e1e" height="207.359996" y="-31.679999" fill-opacity="1"/></g></g></g></g></g><g transform="matrix(1, 0, 0, 1, 6, 32)"><g clip-path="url(#5316807cb2)"><g fill="#3b82f6" fill-opacity="1"><g transform="translate(0.992634, 59.899917)"><g><path d="M 33.875 0.765625 L 2.546875 -12.703125 L 2.546875 -19 L 33.875 -32.40625 L 33.875 -23.390625 L 13.28125 -15.890625 L 33.875 -8.265625 Z M 33.875 0.765625 "/></g></g></g><g fill="#3b82f6" fill-opacity="1"><g transform="translate(37.398989, 59.899917)"><g><path d="M 0.953125 0 L 17.53125 -42.453125 L 27.140625 -42.453125 L 10.671875 0 Z M 0.953125 0 "/></g></g></g><g fill="#ffffff" fill-opacity="1"><g transform="translate(65.48819, 59.899917)"><g><path d="M 3.625 0 L 3.625 -7.875 L 9.59375 -7.875 L 9.59375 -34.5625 L 3.625 -34.5625 L 3.625 -42.453125 L 25.484375 -42.453125 L 25.484375 -34.5625 L 19.640625 -34.5625 L 19.640625 -7.875 L 25.484375 -7.875 L 25.484375 0 Z M 3.625 0 "/></g></g></g><g fill="#3b82f6" fill-opacity="1"><g transform="translate(94.589715, 59.899917)"><g><path d="M 2.546875 0.765625 L 2.546875 -8.265625 L 23.1875 -15.890625 L 2.546875 -23.390625 L 2.546875 -32.40625 L 33.875 -19 L 33.875 -12.703125 Z M 2.546875 0.765625 "/></g></g></g></g></g></svg>