<svg xmlns="http://www.w3.org/2000/svg" xmlns:xlink="http://www.w3.org/1999/xlink" width="192" zoomAndPan="magnify" viewBox="0 0 144 143.999998" height="192" preserveAspectRatio="xMidYMid meet" version="1.0"><defs><g/><clipPath id="2937da6bca"><path d="M 24 0 L 120 0 C 133.253906 0 144 10.746094 144 24 L 144 120 C 144 133.253906 133.253906 144 120 144 L 24 144 C 10.746094 144 0 133.253906 0 120 L 0 24 C 0 10.746094 10.746094 0 24 0 Z M 24 0 " clip-rule="nonzero"/></clipPath><clipPath id="83b7ec35d6"><path d="M 0 0 L 144 0 L 144 144 L 0 144 Z M 0 0 " clip-rule="nonzero"/></clipPath><clipPath id="9c10323ce2"><path d="M 24 0 L 120 0 C 133.253906 0 144 10.746094 144 24 L 144 120 C 144 133.253906 133.253906 144 120 144 L 24 144 C 10.746094 144 0 133.253906 0 120 L 0 24 C 0 10.746094 10.746094 0 24 0 Z M 24 0 " clip-rule="nonzero"/></clipPath><clipPath id="1994fedcce"><rect x="0" width="144" y="0" height="144"/></clipPath><clipPath id="fb06fd93ed"><rect x="0" width="136" y="0" height="105"/></clipPath></defs><g clip-path="url(#2937da6bca)"><g transform="matrix(1, 0, 0, 1, 0, -0.000000000000008916)"><g clip-path="url(#1994fedcce)"><g clip-path="url(#83b7ec35d6)"><g clip-path="url(#9c10323ce2)"><rect x="-31.68" width="207.36" fill="#1e1e1e" height="207.359996" y="-31.679999" fill-opacity="1"/></g></g></g></g></g><g transform="matrix(1, 0, 0, 1, 4, 19)"><g clip-path="url(#fb06fd93ed)"><g fill="#3b82f6" fill-opacity="1"><g transform="translate(0.837691, 79.218331)"><g><path d="M 44.625 1 L 3.34375 -16.75 L 3.34375 -25.03125 L 44.625 -42.703125 L 44.625 -30.8125 L 17.5 -20.9375 L 44.625 -10.890625 Z M 44.625 1 "/></g></g></g><g fill="#ffffff" fill-opacity="1"><g transform="translate(48.816681, 79.218331)"><g><path d="M 4.765625 0 L 4.765625 -10.375 L 12.640625 -10.375 L 12.640625 -45.546875 L 4.765625 -45.546875 L 4.765625 -55.921875 L 33.578125 -55.921875 L 33.578125 -45.546875 L 25.875 -45.546875 L 25.875 -10.375 L 33.578125 -10.375 L 33.578125 0 Z M 4.765625 0 "/></g></g></g><g fill="#3b82f6" fill-opacity="1"><g transform="translate(87.158213, 79.218331)"><g><path d="M 3.34375 1 L 3.34375 -10.890625 L 30.5625 -20.9375 L 3.34375 -30.8125 L 3.34375 -42.703125 L 44.625 -25.03125 L 44.625 -16.75 Z M 3.34375 1 "/></g></g></g></g></g></svg>