<svg xmlns="http://www.w3.org/2000/svg" xmlns:xlink="http://www.w3.org/1999/xlink" width="266" zoomAndPan="magnify" viewBox="0 0 199.5 233.999995" height="312" preserveAspectRatio="xMidYMid meet" version="1.0"><path fill="#3878e0" d="M 96.257812 59.597656 C 96.257812 60.347656 95.507812 60.347656 95.507812 60.347656 L 94.761719 60.347656 C 94.011719 60.347656 94.011719 59.597656 93.265625 58.851562 C 93.265625 58.851562 92.515625 58.101562 92.515625 57.355469 C 92.515625 56.605469 92.515625 56.605469 93.265625 56.605469 L 94.761719 57.355469 C 95.507812 58.101562 96.257812 58.851562 96.257812 59.597656 M 82.789062 52.117188 C 82.789062 48.375 81.292969 46.132812 79.050781 46.132812 C 79.050781 46.132812 79.050781 46.878906 78.300781 46.878906 L 78.300781 48.375 L 80.546875 48.375 C 80.546875 49.871094 81.292969 50.621094 81.292969 52.117188 L 82.789062 52.117188 M 108.976562 48.375 C 110.472656 48.375 111.21875 49.871094 111.96875 52.117188 L 113.464844 52.117188 C 112.714844 51.367188 112.714844 50.621094 112.714844 49.871094 C 112.714844 49.125 112.714844 48.375 111.96875 47.628906 C 111.21875 46.878906 110.472656 46.132812 109.722656 46.132812 C 109.722656 46.132812 108.976562 46.878906 108.226562 46.878906 C 108.226562 47.628906 108.976562 47.628906 108.976562 48.375 M 86.53125 60.347656 C 85.78125 60.347656 85.78125 60.347656 85.78125 59.597656 C 85.78125 58.851562 85.78125 58.101562 86.53125 57.355469 C 88.027344 57.355469 88.777344 56.605469 88.777344 56.605469 C 89.523438 56.605469 89.523438 57.355469 89.523438 57.355469 C 89.523438 58.101562 88.777344 58.851562 87.28125 60.347656 L 86.53125 60.347656 M 78.300781 59.597656 C 75.308594 58.101562 74.5625 55.859375 74.5625 52.117188 C 74.5625 49.871094 74.5625 48.375 76.058594 46.878906 C 76.804688 45.382812 78.300781 44.636719 79.796875 44.636719 C 81.292969 44.636719 82.042969 45.382812 83.539062 46.878906 C 84.285156 49.125 85.035156 51.367188 85.035156 53.613281 L 85.035156 55.109375 L 85.78125 55.109375 L 85.78125 54.363281 C 86.53125 54.363281 86.53125 52.867188 86.53125 49.871094 C 86.53125 47.628906 86.53125 45.382812 85.035156 43.140625 C 83.539062 40.894531 82.042969 39.398438 79.050781 39.398438 C 76.804688 39.398438 74.5625 40.894531 73.8125 43.140625 C 72.316406 46.132812 72.015625 48.375 72.015625 52.117188 C 72.015625 55.109375 73.066406 58.101562 76.058594 61.09375 C 76.804688 60.347656 77.554688 60.347656 78.300781 59.597656 M 171.816406 165.085938 C 172.566406 165.085938 172.566406 164.785156 172.566406 164.113281 C 172.566406 162.464844 171.816406 160.519531 169.574219 158.351562 C 167.328125 156.105469 163.589844 154.683594 159.097656 154.085938 C 158.351562 154.011719 157.601562 154.011719 157.601562 154.011719 C 156.855469 153.863281 156.855469 153.863281 156.105469 153.863281 C 155.359375 153.789062 153.863281 153.636719 153.113281 153.488281 C 155.359375 146.53125 156.105469 140.394531 156.105469 135.007812 C 156.105469 127.527344 154.609375 122.292969 151.617188 117.800781 C 148.625 113.3125 145.632812 111.070312 141.890625 110.320312 C 141.144531 111.070312 141.144531 111.070312 141.144531 111.816406 C 144.886719 113.3125 148.625 116.304688 150.871094 120.796875 C 153.113281 126.03125 153.863281 130.519531 153.863281 135.757812 C 153.863281 139.945312 153.113281 146.15625 150.121094 154.085938 C 147.128906 155.285156 144.136719 158.050781 141.890625 162.390625 C 141.890625 163.0625 141.890625 163.4375 142.640625 163.4375 C 142.640625 163.4375 143.386719 162.765625 144.136719 161.492188 C 145.632812 160.222656 146.382812 158.949219 147.878906 157.675781 C 150.121094 156.40625 151.617188 155.734375 153.863281 155.734375 C 157.601562 155.734375 161.34375 156.257812 163.589844 157.304688 C 166.582031 158.277344 168.078125 159.324219 168.824219 160.519531 C 169.574219 161.644531 170.320312 162.691406 171.070312 163.664062 C 171.070312 164.636719 171.816406 165.085938 171.816406 165.085938 M 102.988281 56.605469 C 102.242188 55.859375 102.242188 54.363281 102.242188 52.867188 C 102.242188 49.871094 102.242188 48.375 103.738281 46.132812 C 105.234375 44.636719 106.730469 43.886719 108.226562 43.886719 C 110.472656 43.886719 111.96875 45.382812 113.464844 46.878906 C 114.210938 49.125 114.960938 50.621094 114.960938 52.867188 C 114.960938 56.605469 113.464844 58.851562 110.472656 59.597656 C 110.472656 59.597656 111.21875 60.347656 111.96875 60.347656 C 113.464844 60.347656 114.210938 61.09375 115.707031 61.84375 C 116.457031 57.355469 117.203125 54.363281 117.203125 50.621094 C 117.203125 46.132812 116.457031 43.140625 114.960938 40.894531 C 112.714844 38.652344 110.472656 37.902344 107.480469 37.902344 C 105.234375 37.902344 102.988281 38.652344 100.746094 40.148438 C 99.25 42.390625 98.5 43.886719 98.5 46.132812 C 98.5 49.871094 99.25 52.867188 100.746094 55.859375 C 101.492188 55.859375 102.242188 56.605469 102.988281 56.605469 M 111.96875 68.574219 C 102.242188 75.308594 94.761719 78.300781 88.777344 78.300781 C 83.539062 78.300781 78.300781 76.058594 73.8125 72.316406 C 74.5625 73.8125 75.308594 75.308594 76.058594 76.058594 L 80.546875 80.546875 C 83.539062 83.539062 87.28125 85.035156 91.019531 85.035156 C 96.257812 85.035156 102.242188 82.042969 109.722656 76.804688 L 116.457031 72.316406 C 117.953125 70.820312 119.449219 69.324219 119.449219 67.078125 C 119.449219 66.332031 119.449219 65.582031 118.699219 65.582031 C 117.953125 64.085938 114.210938 61.84375 106.730469 59.597656 C 99.996094 56.605469 94.761719 55.109375 91.769531 55.109375 C 89.523438 55.109375 85.78125 56.605469 80.546875 59.597656 C 76.058594 62.589844 73.066406 65.582031 73.066406 68.574219 C 73.066406 68.574219 73.8125 69.324219 74.5625 70.820312 C 79.050781 74.5625 83.539062 76.804688 88.027344 76.804688 C 94.011719 76.804688 101.492188 73.8125 111.21875 66.332031 L 111.21875 67.828125 C 111.96875 67.828125 111.96875 68.574219 111.96875 68.574219 M 129.175781 219.695312 C 132.167969 225.324219 137.402344 228.152344 143.386719 228.152344 C 144.886719 228.152344 146.382812 227.925781 147.878906 227.476562 C 149.375 227.179688 150.871094 226.65625 151.617188 226.054688 C 152.367188 225.53125 153.113281 225.007812 153.863281 224.410156 C 155.359375 223.886719 155.359375 223.511719 156.105469 223.136719 L 168.824219 212.140625 C 171.816406 209.753906 174.808594 207.667969 178.550781 205.855469 C 181.542969 204.0625 184.535156 202.863281 186.03125 202.191406 C 188.277344 201.59375 189.773438 200.695312 191.269531 199.496094 C 192.015625 198.375 192.765625 196.953125 192.765625 195.160156 C 192.765625 192.988281 191.269531 191.34375 189.773438 190.144531 C 188.277344 188.949219 186.78125 188.125 185.285156 187.601562 C 183.789062 187.078125 182.292969 185.882812 180.046875 183.863281 C 178.550781 181.917969 177.054688 179.222656 176.304688 175.707031 L 175.558594 171.367188 C 174.808594 169.347656 174.808594 167.851562 174.0625 167.027344 C 174.0625 166.804688 174.0625 166.730469 173.3125 166.730469 C 172.566406 166.730469 171.070312 167.402344 170.320312 168.675781 C 168.824219 169.945312 167.328125 171.367188 165.832031 172.863281 C 165.085938 174.359375 162.839844 175.707031 161.34375 176.980469 C 159.097656 178.25 156.855469 178.925781 155.359375 178.925781 C 149.375 178.925781 146.382812 177.277344 144.136719 174.0625 C 142.640625 171.667969 141.890625 168.898438 141.144531 165.757812 C 139.648438 164.484375 138.898438 163.8125 137.402344 163.8125 C 133.664062 163.8125 132.167969 167.703125 132.167969 175.558594 L 132.167969 198.824219 C 132.167969 199.496094 131.417969 200.992188 131.417969 203.3125 C 130.671875 205.632812 130.671875 208.265625 130.671875 211.242188 L 129.175781 219.546875 L 129.175781 219.675781 M 20.695312 215.71875 C 27.652344 216.734375 35.660156 218.910156 44.710938 222.234375 C 53.761719 225.523438 59.300781 227.246094 61.320312 227.246094 C 66.554688 227.246094 70.894531 224.925781 74.488281 220.445312 C 75.234375 218.992188 75.234375 217.289062 75.234375 215.328125 C 75.234375 208.257812 70.96875 199.316406 62.441406 188.46875 L 57.355469 181.664062 C 56.308594 180.242188 55.035156 178.070312 53.390625 175.152344 C 51.816406 172.234375 50.398438 169.992188 49.273438 168.421875 C 48.300781 166.699219 46.730469 164.980469 44.710938 163.257812 C 42.765625 161.539062 40.523438 160.414062 38.050781 159.816406 C 34.910156 160.414062 32.742188 161.464844 31.695312 162.882812 C 30.644531 164.304688 30.046875 165.878906 29.898438 167.523438 C 29.671875 169.09375 29.226562 170.140625 28.476562 170.664062 C 27.730469 171.113281 26.457031 171.488281 24.734375 171.863281 C 24.363281 171.863281 23.6875 171.863281 22.714844 171.9375 L 20.695312 171.9375 C 16.730469 171.9375 14.039062 172.386719 12.617188 173.132812 C 10.746094 175.304688 9.773438 177.773438 9.773438 180.390625 C 9.773438 181.585938 10.074219 183.609375 10.671875 186.449219 C 11.269531 189.21875 11.570312 191.464844 11.570312 193.035156 C 11.570312 196.101562 10.671875 199.167969 8.800781 202.234375 C 6.929688 205.453125 5.957031 207.847656 5.957031 209.550781 C 6.707031 212.457031 11.644531 214.496094 20.695312 215.695312 M 45.609375 147.691406 C 45.609375 142.527344 46.957031 136.84375 49.722656 130.109375 C 52.417969 123.375 55.109375 118.886719 57.726562 115.894531 C 57.578125 115.148438 57.203125 115.148438 56.605469 115.148438 L 55.859375 114.398438 C 53.6875 116.644531 51.070312 121.878906 47.929688 129.359375 C 44.785156 136.09375 43.140625 142.304688 43.140625 146.867188 C 43.140625 150.234375 43.960938 153.152344 45.460938 155.695312 C 47.105469 158.164062 51.070312 161.753906 57.355469 166.320312 L 65.285156 171.480469 C 73.738281 178.8125 78.226562 183.898438 78.226562 186.890625 C 78.226562 188.464844 77.480469 190.035156 75.234375 191.753906 C 73.738281 193.550781 71.71875 194.449219 69.996094 194.449219 C 69.847656 194.449219 69.773438 194.597656 69.773438 194.972656 C 69.773438 195.046875 70.519531 196.542969 72.09375 199.460938 C 75.234375 203.726562 81.96875 205.820312 90.945312 205.820312 C 107.402344 205.820312 120.121094 199.085938 129.847656 185.621094 C 129.847656 181.878906 129.847656 179.558594 129.097656 178.585938 L 129.097656 175.820312 C 129.097656 170.957031 129.847656 167.292969 131.34375 164.898438 C 132.839844 162.503906 134.335938 161.382812 136.582031 161.382812 C 138.078125 161.382812 139.574219 161.90625 141.070312 163.027344 C 141.816406 157.265625 141.816406 152.253906 141.816406 147.765625 C 141.816406 140.957031 141.816406 135.347656 140.320312 130.109375 C 139.574219 125.621094 138.078125 121.878906 136.582031 118.886719 L 132.09375 112.15625 C 130.597656 109.910156 129.847656 107.664062 128.351562 105.421875 C 127.601562 102.429688 126.855469 100.183594 126.855469 96.445312 C 124.609375 92.703125 123.113281 88.960938 120.871094 85.222656 C 119.375 81.480469 117.878906 77.742188 116.382812 74.75 L 109.648438 79.984375 C 102.167969 85.222656 96.183594 87.464844 90.945312 87.464844 C 86.457031 87.464844 82.714844 86.71875 80.472656 83.726562 L 75.984375 79.984375 C 75.984375 82.230469 75.234375 85.222656 73.738281 88.214844 L 69.023438 97.191406 C 66.929688 102.429688 65.808594 105.421875 65.582031 107.664062 C 65.285156 109.160156 65.058594 110.65625 64.910156 110.65625 L 59.300781 121.878906 C 53.238281 133.101562 50.171875 143.5 50.171875 152.105469 C 50.171875 153.824219 50.320312 155.621094 50.621094 157.414062 C 47.253906 155.097656 45.609375 151.878906 45.609375 147.691406 M 99.175781 218.460938 C 89.449219 218.460938 81.96875 219.78125 76.730469 222.390625 L 76.730469 222.167969 C 72.988281 226.65625 68.800781 228.972656 62.964844 228.972656 C 59.300781 228.972656 53.539062 227.550781 45.757812 224.710938 C 37.902344 222.015625 30.945312 219.953125 24.886719 218.589844 C 24.289062 218.417969 22.941406 218.164062 20.769531 217.820312 C 18.675781 217.484375 16.730469 217.140625 15.011719 216.792969 C 13.4375 216.457031 11.644531 215.949219 9.699219 215.261719 C 7.828125 214.667969 6.332031 213.898438 5.210938 212.964844 C 4.175781 212.023438 3.667969 210.960938 3.667969 209.769531 C 3.667969 208.574219 3.921875 207.292969 4.433594 205.933594 C 4.910156 205.109375 5.433594 204.285156 5.957031 203.539062 C 6.480469 202.714844 6.929688 201.964844 7.230469 201.21875 C 7.679688 200.546875 7.976562 199.871094 8.277344 199.125 C 8.578125 198.449219 8.875 197.777344 9.027344 196.953125 C 9.175781 196.207031 9.324219 195.457031 9.324219 194.710938 C 9.324219 193.960938 9.027344 191.71875 8.425781 187.753906 C 7.828125 183.863281 7.527344 181.394531 7.527344 180.347656 C 7.527344 177.054688 8.277344 174.4375 9.921875 172.566406 C 11.570312 170.695312 13.140625 169.722656 14.785156 169.722656 L 23.390625 169.722656 C 24.0625 169.722656 25.109375 169.347656 26.679688 168.449219 C 27.203125 167.253906 27.652344 166.28125 27.953125 165.382812 C 28.328125 164.484375 28.476562 163.8125 28.625 163.511719 C 28.777344 163.0625 28.925781 162.617188 29.074219 162.242188 C 29.375 161.71875 29.75 161.117188 30.273438 160.519531 C 29.671875 159.773438 29.375 158.800781 29.375 157.601562 C 29.375 156.78125 29.375 156.03125 29.523438 155.582031 C 29.523438 152.890625 30.796875 149.074219 33.488281 144.0625 L 36.109375 139.347656 C 38.277344 135.308594 39.921875 132.316406 41.121094 129.324219 C 42.390625 126.332031 43.738281 121.84375 45.234375 115.859375 C 46.433594 110.621094 49.273438 105.382812 53.761719 100.148438 L 59.375 93.414062 C 63.265625 88.925781 65.808594 85.183594 67.230469 82.191406 C 68.652344 79.199219 69.398438 75.457031 69.398438 72.464844 C 69.398438 70.96875 69.023438 66.480469 68.203125 59 C 67.453125 51.519531 67.078125 44.039062 67.078125 37.304688 C 67.078125 32.066406 67.527344 28.328125 68.5 24.585938 C 69.472656 20.84375 71.195312 17.105469 73.738281 14.113281 C 75.984375 11.121094 78.976562 8.128906 83.464844 6.632812 C 87.953125 5.136719 93.191406 4.386719 99.175781 4.386719 C 101.417969 4.386719 103.664062 4.386719 105.90625 5.136719 C 108.152344 5.136719 111.144531 5.882812 114.886719 7.378906 C 117.878906 8.875 120.871094 10.371094 123.113281 12.617188 C 126.105469 14.859375 128.351562 18.601562 130.597656 22.34375 C 132.09375 26.832031 133.589844 31.320312 134.335938 37.304688 C 135.085938 41.046875 135.085938 44.785156 135.832031 50.023438 C 135.832031 54.511719 136.582031 57.503906 136.582031 59.75 C 137.328125 61.992188 137.328125 64.984375 138.078125 68.726562 C 138.824219 71.71875 139.574219 74.710938 141.070312 76.953125 C 142.566406 79.949219 144.0625 82.941406 146.304688 85.933594 C 148.550781 89.671875 151.542969 93.414062 154.535156 97.902344 C 161.269531 105.382812 166.503906 113.613281 169.5 121.84375 C 173.238281 129.324219 175.484375 139.050781 175.484375 149.449219 C 175.484375 154.609375 174.734375 159.621094 173.238281 164.484375 C 174.734375 164.484375 175.484375 165.085938 176.230469 166.132812 C 176.980469 167.179688 177.726562 169.421875 178.476562 172.941406 L 179.222656 178.476562 C 179.972656 180.121094 180.71875 181.691406 182.964844 183.039062 C 184.460938 184.386719 185.957031 185.507812 188.203125 186.40625 C 189.699219 187.152344 191.941406 188.203125 193.4375 189.546875 C 194.933594 191.042969 195.683594 192.613281 195.683594 194.261719 C 195.683594 196.804688 194.933594 198.675781 193.4375 200.023438 C 191.941406 201.519531 190.445312 202.566406 188.203125 203.238281 C 186.707031 203.988281 183.710938 205.484375 179.222656 207.59375 C 175.484375 209.808594 171.742188 212.492188 168.003906 215.671875 L 160.519531 222.039062 C 157.527344 224.957031 154.535156 227.050781 152.292969 228.324219 C 150.046875 229.667969 147.054688 230.34375 144.0625 230.34375 L 138.824219 229.746094 C 132.839844 228.171875 129.097656 225.179688 126.855469 220.617188 C 114.886719 219.167969 105.160156 218.449219 99.175781 218.449219 " fill-opacity="1" fill-rule="nonzero"/></svg>