<svg xmlns="http://www.w3.org/2000/svg" xmlns:xlink="http://www.w3.org/1999/xlink" width="192" zoomAndPan="magnify" viewBox="0 0 144 143.999998" height="192" preserveAspectRatio="xMidYMid meet" version="1.0"><path fill="#f74c00" d="M 141.535156 70.269531 L 135.617188 66.605469 C 135.566406 66.03125 135.511719 65.453125 135.449219 64.882812 L 140.535156 60.136719 C 141.050781 59.65625 141.285156 58.941406 141.144531 58.25 C 141.007812 57.554688 140.519531 56.984375 139.859375 56.738281 L 133.355469 54.304688 C 133.195312 53.742188 133.023438 53.183594 132.847656 52.628906 L 136.902344 46.996094 C 137.316406 46.421875 137.402344 45.675781 137.132812 45.023438 C 136.863281 44.371094 136.273438 43.90625 135.578125 43.792969 L 128.722656 42.675781 C 128.453125 42.15625 128.175781 41.644531 127.898438 41.136719 L 130.777344 34.8125 C 131.074219 34.167969 131.011719 33.417969 130.621094 32.835938 C 130.226562 32.246094 129.5625 31.902344 128.855469 31.929688 L 121.894531 32.171875 C 121.535156 31.722656 121.167969 31.277344 120.796875 30.839844 L 122.394531 24.0625 C 122.558594 23.371094 122.355469 22.652344 121.851562 22.152344 C 121.355469 21.652344 120.632812 21.445312 119.945312 21.609375 L 113.167969 23.207031 C 112.726562 22.835938 112.28125 22.46875 111.832031 22.105469 L 112.074219 15.148438 C 112.101562 14.441406 111.757812 13.773438 111.171875 13.382812 C 110.582031 12.988281 109.835938 12.929688 109.195312 13.222656 L 102.871094 16.105469 C 102.359375 15.824219 101.847656 15.546875 101.332031 15.28125 L 100.214844 8.421875 C 100.101562 7.726562 99.632812 7.136719 98.980469 6.867188 C 98.332031 6.597656 97.585938 6.683594 97.011719 7.097656 L 91.375 11.152344 C 90.820312 10.976562 90.261719 10.804688 89.699219 10.644531 L 87.265625 4.140625 C 87.019531 3.476562 86.449219 2.992188 85.753906 2.855469 C 85.0625 2.71875 84.351562 2.949219 83.871094 3.460938 L 79.125 8.554688 C 78.550781 8.492188 77.976562 8.433594 77.402344 8.386719 L 73.738281 2.464844 C 73.367188 1.863281 72.710938 1.5 72.003906 1.5 C 71.296875 1.5 70.640625 1.863281 70.273438 2.464844 L 66.609375 8.386719 C 66.03125 8.433594 65.457031 8.492188 64.882812 8.554688 L 60.136719 3.460938 C 59.65625 2.949219 58.941406 2.71875 58.25 2.855469 C 57.558594 2.992188 56.984375 3.476562 56.738281 4.140625 L 54.308594 10.644531 C 53.746094 10.804688 53.1875 10.976562 52.632812 11.152344 L 46.996094 7.097656 C 46.421875 6.683594 45.675781 6.59375 45.023438 6.867188 C 44.371094 7.136719 43.90625 7.726562 43.792969 8.421875 L 42.675781 15.28125 C 42.15625 15.546875 41.644531 15.824219 41.132812 16.105469 L 34.8125 13.222656 C 34.167969 12.929688 33.417969 12.988281 32.835938 13.382812 C 32.246094 13.773438 31.902344 14.441406 31.929688 15.148438 L 32.171875 22.105469 C 31.722656 22.46875 31.277344 22.835938 30.835938 23.207031 L 24.058594 21.609375 C 23.371094 21.449219 22.648438 21.652344 22.152344 22.152344 C 21.648438 22.652344 21.445312 23.371094 21.609375 24.0625 L 23.203125 30.839844 C 22.832031 31.277344 22.46875 31.722656 22.105469 32.171875 L 15.148438 31.929688 C 14.445312 31.910156 13.773438 32.246094 13.382812 32.835938 C 12.988281 33.417969 12.929688 34.167969 13.222656 34.8125 L 16.105469 41.136719 C 15.824219 41.644531 15.546875 42.15625 15.28125 42.675781 L 8.421875 43.792969 C 7.726562 43.90625 7.140625 44.371094 6.867188 45.023438 C 6.597656 45.675781 6.6875 46.421875 7.097656 46.996094 L 11.152344 52.628906 C 10.976562 53.183594 10.804688 53.742188 10.644531 54.304688 L 4.140625 56.738281 C 3.480469 56.984375 2.992188 57.554688 2.855469 58.25 C 2.71875 58.941406 2.949219 59.65625 3.464844 60.136719 L 8.554688 64.882812 C 8.492188 65.453125 8.433594 66.03125 8.386719 66.605469 L 2.464844 70.269531 C 1.867188 70.640625 1.5 71.296875 1.5 72.003906 C 1.5 72.710938 1.867188 73.363281 2.464844 73.734375 L 8.386719 77.398438 C 8.433594 77.976562 8.492188 78.550781 8.554688 79.121094 L 3.464844 83.867188 C 2.949219 84.347656 2.71875 85.0625 2.855469 85.753906 C 2.992188 86.449219 3.480469 87.019531 4.140625 87.265625 L 10.644531 89.699219 C 10.804688 90.261719 10.976562 90.820312 11.152344 91.375 L 7.097656 97.011719 C 6.683594 97.585938 6.597656 98.328125 6.867188 98.980469 C 7.140625 99.632812 7.726562 100.101562 8.425781 100.210938 L 15.28125 101.328125 C 15.546875 101.847656 15.824219 102.359375 16.105469 102.871094 L 13.222656 109.191406 C 12.929688 109.835938 12.988281 110.582031 13.382812 111.167969 C 13.777344 111.757812 14.445312 112.101562 15.148438 112.074219 L 22.105469 111.828125 C 22.46875 112.28125 22.832031 112.726562 23.203125 113.164062 L 21.609375 119.945312 C 21.445312 120.632812 21.648438 121.351562 22.152344 121.851562 C 22.648438 122.351562 23.371094 122.554688 24.058594 122.390625 L 30.835938 120.796875 C 31.277344 121.171875 31.722656 121.535156 32.171875 121.894531 L 31.929688 128.851562 C 31.902344 129.558594 32.246094 130.226562 32.835938 130.621094 C 33.417969 131.011719 34.167969 131.070312 34.8125 130.777344 L 41.132812 127.894531 C 41.644531 128.179688 42.15625 128.453125 42.675781 128.722656 L 43.792969 135.574219 C 43.90625 136.273438 44.371094 136.863281 45.023438 137.132812 C 45.675781 137.402344 46.421875 137.316406 46.996094 136.902344 L 52.628906 132.84375 C 53.183594 133.023438 53.742188 133.195312 54.308594 133.355469 L 56.738281 139.855469 C 56.984375 140.515625 57.554688 141.007812 58.25 141.140625 C 58.941406 141.28125 59.65625 141.050781 60.136719 140.53125 L 64.882812 135.445312 C 65.453125 135.507812 66.03125 135.566406 66.609375 135.617188 L 70.273438 141.535156 C 70.640625 142.132812 71.296875 142.5 72.003906 142.5 C 72.707031 142.5 73.363281 142.132812 73.734375 141.535156 L 77.398438 135.617188 C 77.976562 135.566406 78.550781 135.507812 79.125 135.445312 L 83.867188 140.53125 C 84.347656 141.050781 85.0625 141.28125 85.753906 141.140625 C 86.449219 141.003906 87.019531 140.515625 87.265625 139.855469 L 89.699219 133.355469 C 90.261719 133.195312 90.820312 133.023438 91.375 132.84375 L 97.011719 136.902344 C 97.582031 137.316406 98.328125 137.402344 98.980469 137.132812 C 99.632812 136.863281 100.097656 136.273438 100.210938 135.574219 L 101.332031 128.722656 C 101.847656 128.453125 102.359375 128.175781 102.871094 127.894531 L 109.195312 130.777344 C 109.835938 131.070312 110.582031 131.011719 111.167969 130.621094 C 111.757812 130.226562 112.097656 129.558594 112.074219 128.851562 L 111.832031 121.894531 C 112.28125 121.53125 112.726562 121.171875 113.167969 120.796875 L 119.945312 122.390625 C 120.632812 122.554688 121.355469 122.351562 121.851562 121.851562 C 122.351562 121.351562 122.554688 120.632812 122.394531 119.945312 L 120.796875 113.164062 C 121.167969 112.726562 121.535156 112.28125 121.894531 111.828125 L 128.855469 112.074219 C 129.554688 112.101562 130.226562 111.757812 130.617188 111.167969 C 131.011719 110.582031 131.070312 109.835938 130.777344 109.191406 L 127.894531 102.871094 C 128.175781 102.359375 128.453125 101.847656 128.71875 101.328125 L 135.578125 100.210938 C 136.273438 100.101562 136.863281 99.632812 137.132812 98.980469 C 137.402344 98.328125 137.316406 97.585938 136.902344 97.011719 L 132.847656 91.375 C 133.023438 90.820312 133.191406 90.261719 133.355469 89.699219 L 139.859375 87.265625 C 140.519531 87.019531 141.007812 86.449219 141.140625 85.753906 C 141.28125 85.0625 141.050781 84.347656 140.535156 83.867188 L 135.445312 79.121094 C 135.507812 78.550781 135.566406 77.972656 135.613281 77.398438 L 141.535156 73.734375 C 142.132812 73.363281 142.5 72.707031 142.5 72.003906 C 142.5 71.296875 142.136719 70.640625 141.535156 70.269531 Z M 101.917969 119.375 C 99.65625 118.886719 98.21875 116.660156 98.703125 114.390625 C 99.1875 112.128906 101.414062 110.6875 103.675781 111.171875 C 105.933594 111.65625 107.375 113.890625 106.890625 116.152344 C 106.40625 118.414062 104.175781 119.859375 101.917969 119.375 Z M 99.90625 105.769531 C 97.84375 105.328125 95.816406 106.640625 95.371094 108.707031 L 93.273438 118.515625 C 86.785156 121.460938 79.585938 123.09375 72 123.09375 C 64.242188 123.09375 56.882812 121.378906 50.28125 118.308594 L 48.183594 108.503906 C 47.742188 106.4375 45.710938 105.125 43.652344 105.566406 L 34.992188 107.425781 C 33.386719 105.769531 31.890625 104.007812 30.515625 102.148438 L 72.644531 102.148438 C 73.121094 102.148438 73.4375 102.0625 73.4375 101.628906 L 73.4375 86.726562 C 73.4375 86.292969 73.121094 86.207031 72.644531 86.207031 L 60.324219 86.207031 L 60.324219 76.761719 L 73.648438 76.761719 C 74.867188 76.761719 80.152344 77.109375 81.84375 83.867188 C 82.375 85.945312 83.535156 92.707031 84.332031 94.871094 C 85.121094 97.300781 88.347656 102.148438 91.785156 102.148438 L 112.777344 102.148438 C 113.015625 102.148438 113.269531 102.121094 113.539062 102.074219 C 112.082031 104.050781 110.484375 105.925781 108.761719 107.675781 Z M 41.640625 119.171875 C 39.378906 119.65625 37.152344 118.214844 36.667969 115.953125 C 36.183594 113.683594 37.621094 111.457031 39.882812 110.96875 C 42.140625 110.484375 44.367188 111.925781 44.855469 114.191406 C 45.335938 116.453125 43.898438 118.683594 41.640625 119.171875 Z M 25.660156 54.367188 C 26.597656 56.480469 25.640625 58.960938 23.527344 59.898438 C 21.414062 60.835938 18.941406 59.882812 18.003906 57.765625 C 17.066406 55.648438 18.019531 53.171875 20.132812 52.230469 C 22.25 51.292969 24.722656 52.25 25.660156 54.367188 Z M 20.746094 66.007812 L 29.765625 62 C 31.691406 61.144531 32.5625 58.886719 31.707031 56.957031 L 29.847656 52.757812 L 37.15625 52.757812 L 37.15625 85.6875 L 22.414062 85.6875 C 21.136719 81.191406 20.453125 76.449219 20.453125 71.546875 C 20.453125 69.675781 20.550781 67.828125 20.746094 66.007812 Z M 60.324219 62.8125 L 60.324219 53.105469 L 77.722656 53.105469 C 78.621094 53.105469 84.066406 54.144531 84.066406 58.214844 C 84.066406 61.597656 79.890625 62.808594 76.457031 62.808594 L 60.324219 62.808594 Z M 123.550781 71.546875 C 123.550781 72.835938 123.503906 74.109375 123.410156 75.375 L 118.121094 75.375 C 117.589844 75.375 117.378906 75.722656 117.378906 76.242188 L 117.378906 78.667969 C 117.378906 84.386719 114.152344 85.628906 111.328125 85.945312 C 108.636719 86.25 105.65625 84.820312 105.289062 83.175781 C 103.699219 74.25 101.054688 72.34375 96.878906 69.046875 C 102.0625 65.757812 107.457031 60.902344 107.457031 54.402344 C 107.457031 47.386719 102.644531 42.964844 99.367188 40.796875 C 94.765625 37.765625 89.671875 37.160156 88.296875 37.160156 L 33.601562 37.160156 C 41.015625 28.878906 51.070312 23.015625 62.4375 20.882812 L 68.886719 27.648438 C 70.34375 29.171875 72.757812 29.230469 74.285156 27.769531 L 81.496094 20.871094 C 96.613281 23.683594 109.410156 33.09375 116.789062 46.003906 L 111.847656 57.160156 C 110.996094 59.089844 111.867188 61.347656 113.792969 62.203125 L 123.300781 66.425781 C 123.464844 68.113281 123.550781 69.820312 123.550781 71.546875 Z M 68.890625 15.128906 C 70.558594 13.527344 73.210938 13.59375 74.808594 15.265625 C 76.40625 16.941406 76.34375 19.59375 74.671875 21.195312 C 73 22.792969 70.351562 22.730469 68.75 21.054688 C 67.15625 19.382812 67.214844 16.730469 68.890625 15.128906 Z M 117.898438 54.570312 C 118.835938 52.453125 121.308594 51.496094 123.421875 52.4375 C 125.535156 53.375 126.488281 55.851562 125.550781 57.96875 C 124.617188 60.085938 122.140625 61.042969 120.027344 60.101562 C 117.917969 59.164062 116.960938 56.6875 117.898438 54.570312 Z M 117.898438 54.570312 " fill-opacity="1" fill-rule="nonzero"/></svg>